<svg width="1080" height="1080" viewBox="0 0 1080 1080" fill="none" xmlns="http://www.w3.org/2000/svg">
<path d="M161.886 431.182V408.273H252.909V431.182H221.409V513H193.386V431.182H161.886ZM290.469 514.432C281.946 514.432 274.651 512.744 268.582 509.369C262.514 505.96 257.861 501.222 254.622 495.153C251.384 489.051 249.764 481.977 249.764 473.932C249.764 465.886 251.384 458.83 254.622 452.761C257.861 446.659 262.514 441.92 268.582 438.545C274.651 435.136 281.946 433.432 290.469 433.432C298.991 433.432 306.287 435.136 312.355 438.545C318.423 441.92 323.077 446.659 326.315 452.761C329.554 458.83 331.173 465.886 331.173 473.932C331.173 481.977 329.554 489.051 326.315 495.153C323.077 501.222 318.423 505.96 312.355 509.369C306.287 512.744 298.991 514.432 290.469 514.432ZM290.673 493.568C293.06 493.568 295.122 492.767 296.861 491.165C298.599 489.562 299.946 487.278 300.901 484.312C301.855 481.347 302.332 477.818 302.332 473.727C302.332 469.602 301.855 466.074 300.901 463.142C299.946 460.176 298.599 457.892 296.861 456.29C295.122 454.687 293.06 453.886 290.673 453.886C288.151 453.886 285.986 454.687 284.179 456.29C282.372 457.892 280.991 460.176 280.037 463.142C279.082 466.074 278.605 469.602 278.605 473.727C278.605 477.818 279.082 481.347 280.037 484.312C280.991 487.278 282.372 489.562 284.179 491.165C285.986 492.767 288.151 493.568 290.673 493.568ZM371.06 514.023C365.469 514.023 360.321 512.557 355.616 509.625C350.946 506.693 347.196 502.244 344.366 496.278C341.571 490.312 340.173 482.795 340.173 473.727C340.173 464.25 341.639 456.545 344.571 450.614C347.537 444.682 351.355 440.335 356.026 437.574C360.73 434.812 365.673 433.432 370.855 433.432C374.741 433.432 378.151 434.114 381.082 435.477C384.014 436.807 386.469 438.597 388.446 440.847C390.423 443.062 391.923 445.5 392.946 448.159H393.355V408.273H421.582V513H393.56V500.114H392.946C391.855 502.773 390.287 505.159 388.241 507.273C386.23 509.352 383.776 511.006 380.878 512.233C378.014 513.426 374.741 514.023 371.06 514.023ZM381.491 492.341C384.082 492.341 386.298 491.591 388.139 490.091C390.014 488.557 391.446 486.409 392.435 483.648C393.457 480.852 393.969 477.545 393.969 473.727C393.969 469.841 393.457 466.517 392.435 463.756C391.446 460.96 390.014 458.83 388.139 457.364C386.298 455.864 384.082 455.114 381.491 455.114C378.901 455.114 376.685 455.864 374.844 457.364C373.037 458.83 371.639 460.96 370.651 463.756C369.696 466.517 369.219 469.841 369.219 473.727C369.219 477.614 369.696 480.955 370.651 483.75C371.639 486.511 373.037 488.642 374.844 490.142C376.685 491.608 378.901 492.341 381.491 492.341ZM457.327 514.227C452.315 514.227 447.884 513.409 444.031 511.773C440.213 510.102 437.213 507.58 435.031 504.205C432.849 500.83 431.759 496.534 431.759 491.318C431.759 487.023 432.491 483.358 433.957 480.324C435.423 477.256 437.469 474.75 440.094 472.807C442.719 470.864 445.77 469.381 449.247 468.358C452.759 467.335 456.543 466.67 460.599 466.364C464.997 466.023 468.526 465.614 471.185 465.136C473.878 464.625 475.821 463.926 477.014 463.04C478.207 462.119 478.804 460.909 478.804 459.409V459.205C478.804 457.159 478.02 455.591 476.452 454.5C474.884 453.409 472.872 452.864 470.418 452.864C467.724 452.864 465.526 453.46 463.821 454.653C462.151 455.812 461.145 457.602 460.804 460.023H434.827C435.168 455.25 436.685 450.852 439.378 446.83C442.105 442.773 446.077 439.534 451.293 437.114C456.509 434.659 463.02 433.432 470.827 433.432C476.452 433.432 481.497 434.097 485.963 435.426C490.429 436.722 494.23 438.545 497.366 440.898C500.503 443.216 502.889 445.943 504.526 449.08C506.196 452.182 507.031 455.557 507.031 459.205V513H480.645V501.955H480.031C478.463 504.886 476.554 507.256 474.304 509.062C472.088 510.869 469.548 512.182 466.685 513C463.855 513.818 460.736 514.227 457.327 514.227ZM466.531 496.432C468.679 496.432 470.69 495.989 472.565 495.102C474.474 494.216 476.026 492.937 477.219 491.267C478.412 489.597 479.009 487.568 479.009 485.182V478.636C478.259 478.943 477.457 479.233 476.605 479.506C475.787 479.778 474.901 480.034 473.946 480.273C473.026 480.511 472.037 480.733 470.98 480.938C469.957 481.142 468.884 481.33 467.759 481.5C465.577 481.841 463.787 482.403 462.389 483.188C461.026 483.938 460.003 484.875 459.321 486C458.673 487.091 458.349 488.318 458.349 489.682C458.349 491.864 459.116 493.534 460.651 494.693C462.185 495.852 464.145 496.432 466.531 496.432ZM534.888 542.455C531.649 542.455 528.564 542.199 525.632 541.688C522.7 541.21 520.126 540.545 517.911 539.693L524.047 519.648C526.365 520.466 528.479 520.994 530.388 521.233C532.331 521.472 533.984 521.335 535.348 520.824C536.746 520.313 537.751 519.341 538.365 517.909L538.979 516.477L511.365 434.455H540.82L553.501 488.864H554.32L567.206 434.455H596.865L568.229 519.545C566.797 523.875 564.717 527.761 561.99 531.205C559.297 534.682 555.751 537.426 551.354 539.438C546.956 541.449 541.467 542.455 534.888 542.455ZM632.29 408.273V420.545C632.29 423.886 631.608 427.227 630.244 430.568C628.915 433.875 627.21 436.96 625.131 439.824C623.085 442.653 620.972 445.023 618.79 446.932L607.131 441C608.563 438.545 609.841 435.699 610.966 432.46C612.091 429.222 612.653 425.25 612.653 420.545V408.273H632.29ZM708.751 460.023H682.774C682.638 458.42 682.075 457.04 681.087 455.881C680.098 454.722 678.82 453.835 677.251 453.222C675.717 452.574 674.013 452.25 672.138 452.25C669.717 452.25 667.638 452.693 665.899 453.58C664.161 454.466 663.308 455.727 663.342 457.364C663.308 458.523 663.803 459.597 664.825 460.585C665.882 461.574 667.911 462.341 670.911 462.886L686.865 465.75C694.911 467.216 700.893 469.687 704.814 473.165C708.768 476.608 710.763 481.227 710.797 487.023C710.763 492.614 709.092 497.472 705.786 501.597C702.513 505.687 698.03 508.858 692.337 511.108C686.678 513.324 680.217 514.432 672.956 514.432C660.956 514.432 651.564 511.977 644.78 507.068C638.03 502.159 634.263 495.682 633.479 487.636H661.501C661.876 490.125 663.104 492.051 665.183 493.415C667.297 494.744 669.956 495.409 673.161 495.409C675.751 495.409 677.882 494.966 679.553 494.08C681.257 493.193 682.126 491.932 682.161 490.295C682.126 488.795 681.376 487.602 679.911 486.716C678.479 485.83 676.229 485.114 673.161 484.568L659.251 482.114C651.24 480.716 645.24 478.057 641.251 474.136C637.263 470.216 635.286 465.17 635.32 459C635.286 453.545 636.717 448.926 639.615 445.142C642.547 441.324 646.723 438.426 652.143 436.449C657.598 434.438 664.058 433.432 671.524 433.432C682.876 433.432 691.825 435.784 698.371 440.489C704.95 445.193 708.411 451.705 708.751 460.023Z" fill="#2C2C2C"/>
<path d="M198.75 663L161 535H199.75L217.25 613.75H218.25L239 535H269.5L290.25 614H291.25L308.75 535H347.5L309.75 663H276.5L254.75 591.5H253.75L232 663H198.75ZM394.078 664.75C383.828 664.75 374.995 662.792 367.578 658.875C360.203 654.917 354.516 649.25 350.516 641.875C346.557 634.458 344.578 625.583 344.578 615.25C344.578 605.333 346.578 596.667 350.578 589.25C354.578 581.833 360.224 576.062 367.516 571.938C374.807 567.813 383.411 565.75 393.328 565.75C400.578 565.75 407.141 566.875 413.016 569.125C418.891 571.375 423.911 574.646 428.078 578.937C432.245 583.187 435.453 588.354 437.703 594.438C439.953 600.521 441.078 607.375 441.078 615V623H355.328V604H409.328C409.286 601.25 408.578 598.833 407.203 596.75C405.87 594.625 404.057 592.979 401.766 591.812C399.516 590.604 396.953 590 394.078 590C391.286 590 388.724 590.604 386.391 591.812C384.057 592.979 382.182 594.604 380.766 596.687C379.391 598.771 378.661 601.208 378.578 604V624.5C378.578 627.583 379.224 630.333 380.516 632.75C381.807 635.167 383.661 637.063 386.078 638.438C388.495 639.813 391.411 640.5 394.828 640.5C397.203 640.5 399.37 640.167 401.328 639.5C403.328 638.833 405.036 637.875 406.453 636.625C407.87 635.333 408.911 633.792 409.578 632H441.078C439.995 638.667 437.432 644.458 433.391 649.375C429.349 654.25 423.995 658.042 417.328 660.75C410.703 663.417 402.953 664.75 394.078 664.75ZM481.906 664.5C475.781 664.5 470.365 663.5 465.656 661.5C460.99 659.458 457.323 656.375 454.656 652.25C451.99 648.125 450.656 642.875 450.656 636.5C450.656 631.25 451.552 626.771 453.344 623.062C455.135 619.312 457.635 616.25 460.844 613.875C464.052 611.5 467.781 609.687 472.031 608.437C476.323 607.187 480.948 606.375 485.906 606C491.281 605.583 495.594 605.083 498.844 604.5C502.135 603.875 504.51 603.021 505.969 601.937C507.427 600.812 508.156 599.333 508.156 597.5V597.25C508.156 594.75 507.198 592.833 505.281 591.5C503.365 590.167 500.906 589.5 497.906 589.5C494.615 589.5 491.927 590.229 489.844 591.688C487.802 593.104 486.573 595.292 486.156 598.25H454.406C454.823 592.417 456.677 587.042 459.969 582.125C463.302 577.167 468.156 573.208 474.531 570.25C480.906 567.25 488.865 565.75 498.406 565.75C505.281 565.75 511.448 566.563 516.906 568.188C522.365 569.771 527.01 572 530.844 574.875C534.677 577.708 537.594 581.042 539.594 584.875C541.635 588.667 542.656 592.792 542.656 597.25V663H510.406V649.5H509.656C507.74 653.083 505.406 655.979 502.656 658.188C499.948 660.396 496.844 662 493.344 663C489.885 664 486.073 664.5 481.906 664.5ZM493.156 642.75C495.781 642.75 498.24 642.208 500.531 641.125C502.865 640.042 504.76 638.479 506.219 636.437C507.677 634.396 508.406 631.917 508.406 629V621C507.49 621.375 506.51 621.729 505.469 622.062C504.469 622.396 503.385 622.708 502.219 623C501.094 623.292 499.885 623.562 498.594 623.812C497.344 624.062 496.031 624.292 494.656 624.5C491.99 624.917 489.802 625.604 488.094 626.562C486.427 627.479 485.177 628.625 484.344 630C483.552 631.333 483.156 632.833 483.156 634.5C483.156 637.167 484.094 639.208 485.969 640.625C487.844 642.042 490.24 642.75 493.156 642.75ZM616.391 567V592H553.141V567H616.391ZM565.391 544H599.891V632.125C599.891 633.458 600.12 634.583 600.578 635.5C601.036 636.375 601.745 637.042 602.703 637.5C603.661 637.917 604.891 638.125 606.391 638.125C607.432 638.125 608.641 638 610.016 637.75C611.432 637.5 612.474 637.292 613.141 637.125L618.141 661.375C616.599 661.833 614.391 662.396 611.516 663.063C608.682 663.729 605.307 664.167 601.391 664.375C593.474 664.792 586.828 663.979 581.453 661.937C576.078 659.854 572.036 656.583 569.328 652.125C566.62 647.667 565.307 642.083 565.391 635.375V544ZM667.031 609V663H632.531V535H665.781V585.25H666.781C668.948 579.125 672.552 574.354 677.594 570.938C682.635 567.479 688.698 565.75 695.781 565.75C702.573 565.75 708.469 567.292 713.469 570.375C718.51 573.458 722.406 577.708 725.156 583.125C727.948 588.542 729.323 594.75 729.281 601.75V663H694.781V609C694.823 604.25 693.635 600.521 691.219 597.812C688.844 595.104 685.448 593.75 681.031 593.75C678.24 593.75 675.781 594.375 673.656 595.625C671.573 596.833 669.948 598.583 668.781 600.875C667.656 603.125 667.073 605.833 667.031 609ZM792.313 664.75C782.063 664.75 773.229 662.792 765.813 658.875C758.438 654.917 752.75 649.25 748.75 641.875C744.792 634.458 742.813 625.583 742.813 615.25C742.813 605.333 744.813 596.667 748.812 589.25C752.813 581.833 758.458 576.062 765.75 571.938C773.042 567.813 781.646 565.75 791.563 565.75C798.813 565.75 805.375 566.875 811.25 569.125C817.125 571.375 822.146 574.646 826.313 578.937C830.479 583.187 833.688 588.354 835.938 594.438C838.188 600.521 839.312 607.375 839.312 615V623H753.563V604H807.563C807.521 601.25 806.812 598.833 805.437 596.75C804.104 594.625 802.292 592.979 800 591.812C797.75 590.604 795.188 590 792.313 590C789.521 590 786.958 590.604 784.625 591.812C782.292 592.979 780.417 594.604 779 596.687C777.625 598.771 776.896 601.208 776.813 604V624.5C776.813 627.583 777.458 630.333 778.75 632.75C780.042 635.167 781.896 637.063 784.312 638.438C786.729 639.813 789.646 640.5 793.062 640.5C795.438 640.5 797.604 640.167 799.563 639.5C801.563 638.833 803.271 637.875 804.688 636.625C806.104 635.333 807.146 633.792 807.813 632H839.312C838.229 638.667 835.667 644.458 831.625 649.375C827.583 654.25 822.229 658.042 815.563 660.75C808.938 663.417 801.188 664.75 792.313 664.75ZM853.391 663V567H886.891V585.25H887.891C889.641 578.5 892.411 573.562 896.203 570.437C900.036 567.312 904.516 565.75 909.641 565.75C911.141 565.75 912.62 565.875 914.078 566.125C915.578 566.333 917.016 566.646 918.391 567.062V596.5C916.682 595.917 914.578 595.479 912.078 595.187C909.578 594.896 907.432 594.75 905.641 594.75C902.266 594.75 899.224 595.521 896.516 597.062C893.849 598.562 891.745 600.687 890.203 603.437C888.661 606.146 887.891 609.333 887.891 613V663H853.391Z" fill="url(#paint0_linear_1_30)"/>
<path d="M800 462C800 451.122 803.226 440.488 809.269 431.444C815.313 422.399 823.902 415.349 833.952 411.187C844.002 407.024 855.061 405.935 865.73 408.057C876.399 410.179 886.199 415.417 893.891 423.109C901.583 430.801 906.821 440.601 908.943 451.27C911.065 461.939 909.976 472.998 905.813 483.048C901.651 493.098 894.601 501.687 885.556 507.731C876.512 513.774 865.878 517 855 517H794.5C784.289 517 774.497 512.944 767.276 505.724C760.056 498.503 756 488.711 756 478.5C756 468.289 760.056 458.497 767.276 451.276C774.497 444.056 784.289 440 794.5 440C797.721 439.999 800.93 440.391 804.056 441.169" fill="url(#paint1_linear_1_30)"/>
<path d="M800 462C800 451.122 803.226 440.488 809.269 431.444C815.313 422.399 823.902 415.349 833.952 411.187C844.002 407.024 855.061 405.935 865.73 408.057C876.399 410.179 886.199 415.417 893.891 423.109C901.583 430.801 906.821 440.601 908.943 451.27C911.065 461.939 909.976 472.998 905.813 483.048C901.651 493.098 894.601 501.687 885.556 507.731C876.512 513.774 865.878 517 855 517H794.5C784.289 517 774.497 512.944 767.276 505.724C760.056 498.503 756 488.711 756 478.5C756 468.289 760.056 458.497 767.276 451.276C774.497 444.056 784.289 440 794.5 440C797.721 439.999 800.93 440.391 804.056 441.169" stroke="#2C2C2C" stroke-width="16" stroke-linecap="round" stroke-linejoin="round"/>
<defs>
<linearGradient id="paint0_linear_1_30" x1="539.5" y1="492" x2="539.5" y2="705" gradientUnits="userSpaceOnUse">
<stop stop-color="#007CF0"/>
<stop offset="1" stop-color="#00DFD8"/>
</linearGradient>
<linearGradient id="paint1_linear_1_30" x1="833" y1="407" x2="833" y2="517" gradientUnits="userSpaceOnUse">
<stop stop-color="#007CF0"/>
<stop offset="1" stop-color="#00DFD8"/>
</linearGradient>
</defs>
</svg>
